<?xml version="1.0" standalone="no"?>
<!DOCTYPE svg PUBLIC "-//W3C//DTD SVG 20010904//EN"
 "http://www.w3.org/TR/2001/REC-SVG-20010904/DTD/svg10.dtd">
<svg version="1.0" xmlns="http://www.w3.org/2000/svg"
 width="808.000000pt" height="552.000000pt" viewBox="0 0 808.000000 552.000000"
 preserveAspectRatio="xMidYMid meet">

<g transform="translate(0.000000,552.000000) scale(0.100000,-0.100000)"
fill="#000000" stroke="none">
<path d="M2545 4911 c-3 -5 -29 -17 -58 -27 -92 -30 -316 -152 -415 -227 -115
-87 -288 -257 -368 -364 -95 -126 -102 -136 -130 -188 -15 -27 -30 -52 -34
-55 -12 -9 -76 -142 -113 -235 -78 -199 -121 -383 -145 -630 l-7 -70 -260 -5
-260 -5 253 -5 c210 -4 254 -8 262 -20 5 -8 10 -64 10 -123 0 -357 145 -795
358 -1086 206 -281 468 -494 748 -609 54 -22 116 -43 137 -47 l38 -7 -3 148
-3 149 -105 26 c-339 83 -627 293 -835 609 -98 150 -192 385 -231 582 -8 46
-18 147 -21 226 l-6 142 52 0 51 0 0 -60 c0 -87 49 -233 103 -307 84 -113 205
-197 322 -223 71 -16 210 -14 279 5 124 33 246 123 317 235 55 87 78 157 88
270 l6 75 80 5 c44 3 90 11 102 18 26 14 87 135 102 202 70 292 86 340 115
340 18 0 39 -26 74 -90 33 -60 100 -224 128 -310 9 -30 19 -50 21 -44 4 12
-77 246 -129 369 -54 131 -88 186 -112 183 -24 -4 -29 -18 -80 -285 -20 -101
-43 -197 -51 -215 -54 -114 -77 -130 -181 -126 l-77 3 -22 71 c-45 148 -136
261 -266 329 -92 48 -156 65 -250 65 -157 0 -277 -44 -383 -141 -74 -68 -121
-141 -153 -243 -15 -44 -30 -86 -34 -92 -5 -5 -28 -10 -51 -10 l-43 1 2 85 c4
132 51 344 103 465 143 331 322 552 610 750 125 86 305 163 463 199 l27 6 0
150 c0 136 -6 171 -25 141z m-318 -1416 c82 -40 161 -110 205 -180 26 -42 68
-146 68 -169 0 -10 -36 -15 -147 -20 -184 -8 -813 -9 -820 -2 -7 7 24 109 45
151 36 72 109 148 193 200 83 51 145 65 271 62 101 -3 111 -6 185 -42z m281
-453 c6 -76 -33 -199 -86 -276 -100 -146 -232 -216 -407 -216 -163 0 -300 71
-404 210 -52 69 -110 282 -86 319 4 8 150 10 493 9 l487 -3 3 -43z"/>
<path d="M3710 3100 c-27 -29 -59 -115 -46 -127 3 -3 6 1 6 10 0 28 40 85 68
96 23 9 802 22 2014 33 189 1 191 2 73 8 -66 4 -563 8 -1103 9 l-984 1 -28
-30z"/>
<path d="M3230 3104 c0 -10 5 -26 10 -34 8 -11 9 -7 4 15 -8 37 -14 45 -14 19z"/>
<path d="M3251 3034 c0 -11 3 -14 6 -6 3 7 2 16 -1 19 -3 4 -6 -2 -5 -13z"/>
<path d="M5516 3010 c-93 -28 -138 -153 -88 -245 19 -35 93 -95 162 -130 62
-31 100 -75 100 -115 0 -46 -21 -76 -64 -90 -74 -24 -170 39 -197 129 -7 23
-16 41 -21 41 -4 0 -7 -45 -6 -100 3 -95 9 -119 22 -85 7 19 49 19 85 0 57
-29 101 -29 161 2 117 60 143 182 59 278 -17 19 -73 60 -126 91 -106 64 -133
98 -114 146 13 34 54 61 91 61 46 0 104 -45 134 -104 l26 -53 0 89 c0 77 -2
86 -14 70 -14 -19 -19 -18 -91 9 -45 17 -76 18 -119 6z"/>
<path d="M3911 2857 c-34 -83 -78 -190 -96 -237 -40 -107 -73 -171 -94 -187
-18 -14 -20 -13 52 -17 41 -2 57 8 31 18 -20 8 -16 59 9 119 l16 37 64 0 c112
0 126 -6 153 -64 29 -62 31 -96 7 -97 -17 0 -17 -1 -1 -7 13 -5 164 -7 187 -3
2 1 -6 9 -17 19 -11 9 -37 60 -57 112 -21 52 -43 109 -51 125 -7 17 -25 59
-38 95 -35 94 -91 228 -97 234 -3 3 -33 -63 -68 -147z m63 -142 c20 -49 36
-93 36 -97 0 -4 -38 -8 -85 -8 -47 0 -85 3 -85 8 0 9 66 177 75 192 11 17 19
4 59 -95z"/>
<path d="M4255 3001 c-3 -2 -5 -36 -4 -75 l1 -71 12 40 c15 50 63 85 117 85
l39 0 0 -269 c0 -169 -4 -272 -10 -276 -24 -15 -5 -20 62 -18 40 1 81 2 91 3
15 0 15 2 -3 20 -19 19 -20 31 -18 278 l3 257 52 0 c60 -1 86 -19 114 -80 l18
-40 -2 75 -2 75 -233 1 c-128 0 -235 -2 -237 -5z"/>
<path d="M4818 2995 l32 -14 0 -183 c0 -207 10 -285 40 -329 52 -73 184 -96
270 -48 88 49 99 86 100 332 0 192 8 229 53 247 15 6 -4 9 -63 9 -54 0 -78 -3
-65 -9 45 -18 47 -28 46 -250 -1 -225 -5 -242 -53 -288 -29 -26 -103 -34 -140
-13 -54 28 -58 50 -58 293 0 202 2 227 18 240 9 9 26 18 37 21 11 2 -41 5
-115 5 -125 1 -132 0 -102 -13z"/>
<path d="M3641 2924 c0 -11 3 -14 6 -6 3 7 2 16 -1 19 -3 4 -6 -2 -5 -13z"/>
<path d="M3632 2835 c0 -16 2 -22 5 -12 2 9 2 23 0 30 -3 6 -5 -1 -5 -18z"/>
<path d="M3622 2700 c0 -14 2 -19 5 -12 2 6 2 18 0 25 -3 6 -5 1 -5 -13z"/>
<path d="M3612 2590 c0 -19 2 -27 5 -17 2 9 2 25 0 35 -3 9 -5 1 -5 -18z"/>
<path d="M3470 2506 c0 -30 72 -146 91 -146 12 0 27 39 35 92 5 30 4 39 -4 34
-7 -4 -12 -15 -12 -25 0 -10 -6 -24 -14 -30 -21 -18 -55 3 -72 45 -12 29 -24
44 -24 30z"/>
</g>
</svg>
