<svg xmlns="http://www.w3.org/2000/svg" xmlns:xlink="http://www.w3.org/1999/xlink" version="1.1" width="1000" height="1000" viewBox="0 0 1000 1000" xml:space="preserve">
<desc>Created with Fabric.js 3.5.0</desc>
<defs>
</defs>
<rect x="0" y="0" width="100%" height="100%" fill="#ffffff"/>
<g transform="matrix(1.4515 0 0 1.4515 609.2533 499.99)" id="591273">
<g style="" vector-effect="non-scaling-stroke">
		<g transform="matrix(0.1333 0 0 -0.1333 -275.2312 -40.6605)">
<path style="stroke: none; stroke-width: 1; stroke-dasharray: none; stroke-linecap: butt; stroke-dashoffset: 0; stroke-linejoin: miter; stroke-miterlimit: 4; is-custom-font: none; font-file-url: none; fill: rgb(0,0,0); fill-rule: nonzero; opacity: 1;" transform=" translate(-1976.0713, -3064.4899)" d="M 2545 4911 c -3 -5 -29 -17 -58 -27 c -92 -30 -316 -152 -415 -227 c -115 -87 -288 -257 -368 -364 c -95 -126 -102 -136 -130 -188 c -15 -27 -30 -52 -34 -55 c -12 -9 -76 -142 -113 -235 c -78 -199 -121 -383 -145 -630 l -7 -70 l -260 -5 l -260 -5 l 253 -5 c 210 -4 254 -8 262 -20 c 5 -8 10 -64 10 -123 c 0 -357 145 -795 358 -1086 c 206 -281 468 -494 748 -609 c 54 -22 116 -43 137 -47 l 38 -7 l -3 148 l -3 149 l -105 26 c -339 83 -627 293 -835 609 c -98 150 -192 385 -231 582 c -8 46 -18 147 -21 226 l -6 142 l 52 0 l 51 0 l 0 -60 c 0 -87 49 -233 103 -307 c 84 -113 205 -197 322 -223 c 71 -16 210 -14 279 5 c 124 33 246 123 317 235 c 55 87 78 157 88 270 l 6 75 l 80 5 c 44 3 90 11 102 18 c 26 14 87 135 102 202 c 70 292 86 340 115 340 c 18 0 39 -26 74 -90 c 33 -60 100 -224 128 -310 c 9 -30 19 -50 21 -44 c 4 12 -77 246 -129 369 c -54 131 -88 186 -112 183 c -24 -4 -29 -18 -80 -285 c -20 -101 -43 -197 -51 -215 c -54 -114 -77 -130 -181 -126 l -77 3 l -22 71 c -45 148 -136 261 -266 329 c -92 48 -156 65 -250 65 c -157 0 -277 -44 -383 -141 c -74 -68 -121 -141 -153 -243 c -15 -44 -30 -86 -34 -92 c -5 -5 -28 -10 -51 -10 l -43 1 l 2 85 c 4 132 51 344 103 465 c 143 331 322 552 610 750 c 125 86 305 163 463 199 l 27 6 l 0 150 c 0 136 -6 171 -25 141 z m -318 -1416 c 82 -40 161 -110 205 -180 c 26 -42 68 -146 68 -169 c 0 -10 -36 -15 -147 -20 c -184 -8 -813 -9 -820 -2 c -7 7 24 109 45 151 c 36 72 109 148 193 200 c 83 51 145 65 271 62 c 101 -3 111 -6 185 -42 z m 281 -453 c 6 -76 -33 -199 -86 -276 c -100 -146 -232 -216 -407 -216 c -163 0 -300 71 -404 210 c -52 69 -110 282 -86 319 c 4 8 150 10 493 9 l 487 -3 l 3 -43 z" stroke-linecap="round"/>
</g>
		<g transform="matrix(0.1333 0 0 -0.1333 99.0539 -38.8037)">
<path style="stroke: none; stroke-width: 1; stroke-dasharray: none; stroke-linecap: butt; stroke-dashoffset: 0; stroke-linejoin: miter; stroke-miterlimit: 4; is-custom-font: none; font-file-url: none; fill: rgb(0,0,0); fill-rule: nonzero; opacity: 1;" transform=" translate(-4783.1846, -3051.0075)" d="M 3710 3100 c -27 -29 -59 -115 -46 -127 c 3 -3 6 1 6 10 c 0 28 40 85 68 96 c 23 9 802 22 2014 33 c 189 1 191 2 73 8 c -66 4 -563 8 -1103 9 l -984 1 l -28 -30 z" stroke-linecap="round"/>
</g>
		<g transform="matrix(0.1333 0 0 -0.1333 -106.8633 -44.2205)">
<path style="stroke: none; stroke-width: 1; stroke-dasharray: none; stroke-linecap: butt; stroke-dashoffset: 0; stroke-linejoin: miter; stroke-miterlimit: 4; is-custom-font: none; font-file-url: none; fill: rgb(0,0,0); fill-rule: nonzero; opacity: 1;" transform=" translate(-3238.5281, -3091.647)" d="M 3230 3104 c 0 -10 5 -26 10 -34 c 8 -11 9 -7 4 15 c -8 37 -14 45 -14 19 z" stroke-linecap="round"/>
</g>
		<g transform="matrix(0.1333 0 0 -0.1333 -104.6924 -36.782)">
<path style="stroke: none; stroke-width: 1; stroke-dasharray: none; stroke-linecap: butt; stroke-dashoffset: 0; stroke-linejoin: miter; stroke-miterlimit: 4; is-custom-font: none; font-file-url: none; fill: rgb(0,0,0); fill-rule: nonzero; opacity: 1;" transform=" translate(-3254.8076, -3035.8618)" d="M 3251 3034 c 0 -11 3 -14 6 -6 c 3 7 2 16 -1 19 c -3 4 -6 -2 -5 -13 z" stroke-linecap="round"/>
</g>
		<g transform="matrix(0.1333 0 0 -0.1333 206.6623 7.2211)">
<path style="stroke: none; stroke-width: 1; stroke-dasharray: none; stroke-linecap: butt; stroke-dashoffset: 0; stroke-linejoin: miter; stroke-miterlimit: 4; is-custom-font: none; font-file-url: none; fill: rgb(0,0,0); fill-rule: nonzero; opacity: 1;" transform=" translate(-5590.0145, -2705.7639)" d="M 5516 3010 c -93 -28 -138 -153 -88 -245 c 19 -35 93 -95 162 -130 c 62 -31 100 -75 100 -115 c 0 -46 -21 -76 -64 -90 c -74 -24 -170 39 -197 129 c -7 23 -16 41 -21 41 c -4 0 -7 -45 -6 -100 c 3 -95 9 -119 22 -85 c 7 19 49 19 85 0 c 57 -29 101 -29 161 2 c 117 60 143 182 59 278 c -17 19 -73 60 -126 91 c -106 64 -133 98 -114 146 c 13 34 54 61 91 61 c 46 0 104 -45 134 -104 l 26 -53 l 0 89 c 0 77 -2 86 -14 70 c -14 -19 -19 -18 -91 9 c -45 17 -76 18 -119 6 z" stroke-linecap="round"/>
</g>
		<g transform="matrix(0.1333 0 0 -0.1333 -8.6907 6.6675)">
<path style="stroke: none; stroke-width: 1; stroke-dasharray: none; stroke-linecap: butt; stroke-dashoffset: 0; stroke-linejoin: miter; stroke-miterlimit: 4; is-custom-font: none; font-file-url: none; fill: rgb(0,0,0); fill-rule: nonzero; opacity: 1;" transform=" translate(-3974.8861, -2709.9205)" d="M 3911 2857 c -34 -83 -78 -190 -96 -237 c -40 -107 -73 -171 -94 -187 c -18 -14 -20 -13 52 -17 c 41 -2 57 8 31 18 c -20 8 -16 59 9 119 l 16 37 l 64 0 c 112 0 126 -6 153 -64 c 29 -62 31 -96 7 -97 c -17 0 -17 -1 -1 -7 c 13 -5 164 -7 187 -3 c 2 1 -6 9 -17 19 c -11 9 -37 60 -57 112 c -21 52 -43 109 -51 125 c -7 17 -25 59 -38 95 c -35 94 -91 228 -97 234 c -3 3 -33 -63 -68 -147 z m 63 -142 c 20 -49 36 -93 36 -97 c 0 -4 -38 -8 -85 -8 c -47 0 -85 3 -85 8 c 0 9 66 177 75 192 c 11 17 19 4 59 -95 z" stroke-linecap="round"/>
</g>
		<g transform="matrix(0.1333 0 0 -0.1333 59.9747 6.4848)">
<path style="stroke: none; stroke-width: 1; stroke-dasharray: none; stroke-linecap: butt; stroke-dashoffset: 0; stroke-linejoin: miter; stroke-miterlimit: 4; is-custom-font: none; font-file-url: none; fill: rgb(0,0,0); fill-rule: nonzero; opacity: 1;" transform=" translate(-4489.8699, -2711.2899)" d="M 4255 3001 c -3 -2 -5 -36 -4 -75 l 1 -71 l 12 40 c 15 50 63 85 117 85 l 39 0 l 0 -269 c 0 -169 -4 -272 -10 -276 c -24 -15 -5 -20 62 -18 c 40 1 81 2 91 3 c 15 0 15 2 -3 20 c -19 19 -20 31 -18 278 l 3 257 l 52 0 c 60 -1 86 -19 114 -80 l 18 -40 l -2 75 l -2 75 l -233 1 c -128 0 -235 -2 -237 -5 z" stroke-linecap="round"/>
</g>
		<g transform="matrix(0.1333 0 0 -0.1333 136.063 7.6709)">
<path style="stroke: none; stroke-width: 1; stroke-dasharray: none; stroke-linecap: butt; stroke-dashoffset: 0; stroke-linejoin: miter; stroke-miterlimit: 4; is-custom-font: none; font-file-url: none; fill: rgb(0,0,0); fill-rule: nonzero; opacity: 1;" transform=" translate(-5060.5372, -2702.3916)" d="M 4818 2995 l 32 -14 l 0 -183 c 0 -207 10 -285 40 -329 c 52 -73 184 -96 270 -48 c 88 49 99 86 100 332 c 0 192 8 229 53 247 c 15 6 -4 9 -63 9 c -54 0 -78 -3 -65 -9 c 45 -18 47 -28 46 -250 c -1 -225 -5 -242 -53 -288 c -29 -26 -103 -34 -140 -13 c -54 28 -58 50 -58 293 c 0 202 2 227 18 240 c 9 9 26 18 37 21 c 11 2 -41 5 -115 5 c -125 1 -132 0 -102 -13 z" stroke-linecap="round"/>
</g>
		<g transform="matrix(0.1333 0 0 -0.1333 -52.6924 -22.1153)">
<path style="stroke: none; stroke-width: 1; stroke-dasharray: none; stroke-linecap: butt; stroke-dashoffset: 0; stroke-linejoin: miter; stroke-miterlimit: 4; is-custom-font: none; font-file-url: none; fill: rgb(0,0,0); fill-rule: nonzero; opacity: 1;" transform=" translate(-3644.8076, -2925.8618)" d="M 3641 2924 c 0 -11 3 -14 6 -6 c 3 7 2 16 -1 19 c -3 4 -6 -2 -5 -13 z" stroke-linecap="round"/>
</g>
		<g transform="matrix(0.1333 0 0 -0.1333 -53.9668 -10.2157)">
<path style="stroke: none; stroke-width: 1; stroke-dasharray: none; stroke-linecap: butt; stroke-dashoffset: 0; stroke-linejoin: miter; stroke-miterlimit: 4; is-custom-font: none; font-file-url: none; fill: rgb(0,0,0); fill-rule: nonzero; opacity: 1;" transform=" translate(-3635.25, -2836.6132)" d="M 3632 2835 c 0 -16 2 -22 5 -12 c 2 9 2 23 0 30 c -3 6 -5 -1 -5 -18 z" stroke-linecap="round"/>
</g>
		<g transform="matrix(0.1333 0 0 -0.1333 -55.3001 7.9758)">
<path style="stroke: none; stroke-width: 1; stroke-dasharray: none; stroke-linecap: butt; stroke-dashoffset: 0; stroke-linejoin: miter; stroke-miterlimit: 4; is-custom-font: none; font-file-url: none; fill: rgb(0,0,0); fill-rule: nonzero; opacity: 1;" transform=" translate(-3625.25, -2700.1777)" d="M 3622 2700 c 0 -14 2 -19 5 -12 c 2 6 2 18 0 25 c -3 6 -5 1 -5 -13 z" stroke-linecap="round"/>
</g>
		<g transform="matrix(0.1333 0 0 -0.1333 -56.6334 22.6417)">
<path style="stroke: none; stroke-width: 1; stroke-dasharray: none; stroke-linecap: butt; stroke-dashoffset: 0; stroke-linejoin: miter; stroke-miterlimit: 4; is-custom-font: none; font-file-url: none; fill: rgb(0,0,0); fill-rule: nonzero; opacity: 1;" transform=" translate(-3615.25, -2590.1815)" d="M 3612 2590 c 0 -19 2 -27 5 -17 c 2 9 2 25 0 35 c -3 9 -5 1 -5 -18 z" stroke-linecap="round"/>
</g>
		<g transform="matrix(0.1333 0 0 -0.1333 -67.3985 43.244)">
<path style="stroke: none; stroke-width: 1; stroke-dasharray: none; stroke-linecap: butt; stroke-dashoffset: 0; stroke-linejoin: miter; stroke-miterlimit: 4; is-custom-font: none; font-file-url: none; fill: rgb(0,0,0); fill-rule: nonzero; opacity: 1;" transform=" translate(-3534.5281, -2435.6513)" d="M 3470 2506 c 0 -30 72 -146 91 -146 c 12 0 27 39 35 92 c 5 30 4 39 -4 34 c -7 -4 -12 -15 -12 -25 c 0 -10 -6 -24 -14 -30 c -21 -18 -55 3 -72 45 c -12 29 -24 44 -24 30 z" stroke-linecap="round"/>
</g>
</g>
</g>
</svg>